<svg width="132" height="157" viewBox="0 0 132 157" fill="none" xmlns="http://www.w3.org/2000/svg">
<path d="M87.122 14.4113L93.9378 2.05173C94.025 1.89335 94.0803 1.71927 94.1005 1.53943C94.1208 1.35958 94.1056 1.17748 94.0558 1.00354C94.006 0.829597 93.9226 0.66721 93.8104 0.525653C93.6982 0.384095 93.5594 0.266139 93.4018 0.178519C93.2442 0.0908982 93.071 0.0353295 92.8921 0.0149854C92.7132 -0.00535875 92.532 0.00992035 92.3589 0.0599498C92.1859 0.109979 92.0243 0.193779 91.8835 0.306566C91.7426 0.419352 91.6253 0.558916 91.5381 0.717289L84.6513 13.2053C78.7723 10.6146 72.4228 9.27701 66.0035 9.27701C59.5843 9.27701 53.2348 10.6146 47.3559 13.2053L40.469 0.717289C40.293 0.395548 39.9969 0.157281 39.6461 0.0549036C39.2953 -0.0474737 38.9183 -0.00557522 38.5982 0.171382C38.2781 0.34834 38.041 0.645861 37.9392 0.998494C37.8373 1.35113 37.879 1.72999 38.0551 2.05173L44.8709 14.4113C38.3859 17.6261 32.9067 22.5735 29.0344 28.7113C25.162 34.849 23.046 41.94 22.9182 49.2066H109.089C108.96 41.9385 106.842 34.8465 102.967 28.7086C99.0917 22.5707 93.6097 17.6241 87.122 14.4113ZM22.9111 115.393C22.9083 116.771 23.1761 118.136 23.6992 119.409C24.2223 120.683 24.9903 121.84 25.9592 122.815C26.9282 123.789 28.079 124.562 29.3457 125.089C30.6124 125.615 31.97 125.885 33.3408 125.883H40.2489V147.291C40.2489 149.866 41.2666 152.336 43.0781 154.156C44.8895 155.977 47.3464 157 49.9082 157C52.47 157 54.9269 155.977 56.7384 154.156C58.5499 152.336 59.5676 149.866 59.5676 147.291V125.883H72.4466V147.291C72.4466 149.865 73.464 152.334 75.2748 154.154C77.0856 155.974 79.5415 156.996 82.1024 156.996C84.6633 156.996 87.1193 155.974 88.9301 154.154C90.7409 152.334 91.7582 149.865 91.7582 147.291V125.883H98.6734C100.042 125.884 101.398 125.614 102.663 125.088C103.928 124.562 105.077 123.79 106.045 122.817C107.013 121.844 107.781 120.689 108.304 119.418C108.828 118.146 109.097 116.784 109.096 115.408V52.6319H22.904L22.9111 115.393ZM9.65577 50.955C7.09482 50.9587 4.63995 51.9834 2.82975 53.8042C1.01955 55.625 0.00187752 58.0931 0 60.6671V101.121C-2.67214e-08 102.396 0.249753 103.658 0.735001 104.835C1.22025 106.013 1.93149 107.083 2.82811 107.984C3.72473 108.885 4.78917 109.6 5.96066 110.088C7.13216 110.575 8.38775 110.826 9.65577 110.826C10.9238 110.826 12.1794 110.575 13.3509 110.088C14.5224 109.6 15.5868 108.885 16.4834 107.984C17.38 107.083 18.0913 106.013 18.5765 104.835C19.0618 103.658 19.3115 102.396 19.3115 101.121V60.6742C19.3078 58.1015 18.2893 55.6352 16.4793 53.8159C14.6693 51.9967 12.2155 50.973 9.65577 50.9692V50.955ZM122.344 50.955C119.783 50.9587 117.328 51.9834 115.518 53.8042C113.708 55.625 112.69 58.0931 112.688 60.6671V101.121C112.688 102.396 112.938 103.658 113.423 104.835C113.909 106.013 114.62 107.083 115.517 107.984C116.413 108.885 117.478 109.6 118.649 110.088C119.821 110.575 121.076 110.826 122.344 110.826C123.612 110.826 124.868 110.575 126.039 110.088C127.211 109.6 128.275 108.885 129.172 107.984C130.069 107.083 130.78 106.013 131.265 104.835C131.75 103.658 132 102.396 132 101.121V60.6742C131.996 58.1015 130.978 55.6352 129.168 53.8159C127.358 51.9967 124.904 50.973 122.344 50.9692V50.955Z" fill="#272FE5"/>
</svg>
