<svg width="132" height="157" viewBox="0 0 132 157" fill="none" xmlns="http://www.w3.org/2000/svg">
<path d="M110.244 86.9054C110.317 81.1838 111.963 75.5729 115.028 70.5979C118.093 65.623 122.477 61.4467 127.769 58.4602C124.405 54.043 119.977 50.4049 114.833 47.8315C109.688 45.2581 103.967 43.8194 98.1178 43.6284C85.489 42.4472 73.4762 50.4836 67.0726 50.4836C60.6772 50.4836 50.7962 43.8003 40.3235 43.9798C33.4498 44.1582 26.7443 45.9808 20.8643 49.2689C14.9843 52.5571 10.1316 57.1978 6.78178 62.7364C-7.50873 85.6121 3.13418 119.5 17.0518 138.062C23.8607 147.137 31.9908 157.357 42.6499 156.99C52.928 156.617 56.8026 150.86 69.2126 150.86C81.6144 150.86 85.108 156.99 95.9617 156.804C107.018 156.617 114.029 147.541 120.782 138.436C125.618 131.885 129.397 124.72 132 117.167C125.567 114.634 120.079 110.419 116.213 105.042C112.347 99.6662 110.272 93.3639 110.244 86.9129V86.9054Z" fill="#27E551"/>
<path d="M90.9684 30.202C98.731 21.8387 102.579 10.9769 101.668 0C89.9712 1.04498 79.1523 6.1811 71.4335 14.3534L71.2714 14.7048C63.5088 23.068 59.6608 33.9299 60.5717 44.9067C72.2685 43.8618 83.0875 38.7256 90.8063 30.5533L90.9684 30.202Z" fill="#27E551"/>
</svg>
