<svg width="42" height="42" viewBox="0 0 42 42" fill="none" xmlns="http://www.w3.org/2000/svg">
<path d="M28.875 5.25C25.83 5.25 22.9075 6.6675 21 8.9075C19.0925 6.6675 16.17 5.25 13.125 5.25C7.735 5.25 3.5 9.485 3.5 14.875C3.5 21.49 9.45 26.88 18.4625 35.07L21 37.3625L23.5375 35.0525C32.55 26.88 38.5 21.49 38.5 14.875C38.5 9.485 34.265 5.25 28.875 5.25ZM21.175 32.4625L21 32.6375L20.825 32.4625C12.495 24.92 7 19.9325 7 14.875C7 11.375 9.625 8.75 13.125 8.75C15.82 8.75 18.445 10.4825 19.3725 12.88H22.645C23.555 10.4825 26.18 8.75 28.875 8.75C32.375 8.75 35 11.375 35 14.875C35 19.9325 29.505 24.92 21.175 32.4625Z" fill="#FF4D00"/>
</svg>
