<svg width="265" height="66" viewBox="0 0 265 66" fill="none" xmlns="http://www.w3.org/2000/svg">
<path d="M0.88 35.592C0.88 33.0107 1.408 30.7667 2.464 28.86C3.54933 26.924 5.04533 25.4427 6.952 24.416C8.888 23.3893 11.088 22.876 13.552 22.876C16.7787 22.876 19.492 23.7853 21.692 25.604C23.9213 27.4227 25.3293 29.9453 25.916 33.172H15.576C15.1947 31.8813 14.4467 31.236 13.332 31.236C12.54 31.236 11.9093 31.6027 11.44 32.336C11 33.0693 10.78 34.1547 10.78 35.592C10.78 37.0293 11 38.1147 11.44 38.848C11.9093 39.5813 12.54 39.948 13.332 39.948C14.4467 39.948 15.1947 39.3027 15.576 38.012H25.916C25.3293 41.2387 23.9213 43.7613 21.692 45.58C19.492 47.3987 16.7787 48.308 13.552 48.308C11.088 48.308 8.888 47.7947 6.952 46.768C5.04533 45.7413 3.54933 44.2747 2.464 42.368C1.408 40.432 0.88 38.1733 0.88 35.592ZM40.8045 48.308C38.3112 48.308 36.0672 47.7947 34.0725 46.768C32.0778 45.7413 30.5085 44.2747 29.3645 42.368C28.2498 40.432 27.6925 38.1733 27.6925 35.592C27.6925 33.0107 28.2498 30.7667 29.3645 28.86C30.5085 26.924 32.0778 25.4427 34.0725 24.416C36.0672 23.3893 38.3112 22.876 40.8045 22.876C43.2978 22.876 45.5418 23.3893 47.5365 24.416C49.5312 25.4427 51.0858 26.924 52.2005 28.86C53.3445 30.7667 53.9165 33.0107 53.9165 35.592C53.9165 38.1733 53.3445 40.432 52.2005 42.368C51.0858 44.2747 49.5312 45.7413 47.5365 46.768C45.5418 47.7947 43.2978 48.308 40.8045 48.308ZM40.8045 39.86C41.7138 39.86 42.4765 39.508 43.0925 38.804C43.7085 38.0707 44.0165 37 44.0165 35.592C44.0165 34.184 43.7085 33.128 43.0925 32.424C42.4765 31.6907 41.7138 31.324 40.8045 31.324C39.8952 31.324 39.1325 31.6907 38.5165 32.424C37.9005 33.128 37.5925 34.184 37.5925 35.592C37.5925 37 37.8858 38.0707 38.4725 38.804C39.0885 39.508 39.8658 39.86 40.8045 39.86ZM66.7532 15.44V48H56.9852V15.44H66.7532ZM82.9568 48.308C80.4635 48.308 78.2195 47.7947 76.2248 46.768C74.2302 45.7413 72.6608 44.2747 71.5168 42.368C70.4022 40.432 69.8448 38.1733 69.8448 35.592C69.8448 33.0107 70.4022 30.7667 71.5168 28.86C72.6608 26.924 74.2302 25.4427 76.2248 24.416C78.2195 23.3893 80.4635 22.876 82.9568 22.876C85.4502 22.876 87.6942 23.3893 89.6888 24.416C91.6835 25.4427 93.2382 26.924 94.3528 28.86C95.4968 30.7667 96.0688 33.0107 96.0688 35.592C96.0688 38.1733 95.4968 40.432 94.3528 42.368C93.2382 44.2747 91.6835 45.7413 89.6888 46.768C87.6942 47.7947 85.4502 48.308 82.9568 48.308ZM82.9568 39.86C83.8662 39.86 84.6288 39.508 85.2448 38.804C85.8608 38.0707 86.1688 37 86.1688 35.592C86.1688 34.184 85.8608 33.128 85.2448 32.424C84.6288 31.6907 83.8662 31.324 82.9568 31.324C82.0475 31.324 81.2848 31.6907 80.6688 32.424C80.0528 33.128 79.7448 34.184 79.7448 35.592C79.7448 37 80.0382 38.0707 80.6248 38.804C81.2408 39.508 82.0182 39.86 82.9568 39.86ZM108.906 27.76C109.903 26.3227 111.12 25.1787 112.558 24.328C113.995 23.448 115.491 23.008 117.046 23.008V33.436H114.274C112.426 33.436 111.062 33.7587 110.182 34.404C109.331 35.0493 108.906 36.1933 108.906 37.836V48H99.1375V23.184H108.906V27.76Z" fill="white"/>
<path d="M145.153 27.54C145.153 29.5053 144.698 31.2947 143.789 32.908C142.879 34.492 141.53 35.7533 139.741 36.692C137.981 37.6307 135.839 38.1 133.317 38.1H129.445V48H119.677V16.848H133.317C137.13 16.848 140.049 17.816 142.073 19.752C144.126 21.688 145.153 24.284 145.153 27.54ZM132.217 30.4C134.241 30.4 135.253 29.4467 135.253 27.54C135.253 25.6333 134.241 24.68 132.217 24.68H129.445V30.4H132.217ZM153.179 21.204C151.477 21.204 150.113 20.7493 149.087 19.84C148.06 18.9307 147.547 17.7867 147.547 16.408C147.547 15 148.06 13.8413 149.087 12.932C150.113 11.9933 151.477 11.524 153.179 11.524C154.851 11.524 156.2 11.9933 157.227 12.932C158.253 13.8413 158.767 15 158.767 16.408C158.767 17.7867 158.253 18.9307 157.227 19.84C156.2 20.7493 154.851 21.204 153.179 21.204ZM158.019 23.184V48H148.251V23.184H158.019ZM161.11 35.592C161.11 33.0107 161.638 30.7667 162.694 28.86C163.78 26.924 165.276 25.4427 167.182 24.416C169.118 23.3893 171.318 22.876 173.782 22.876C177.009 22.876 179.722 23.7853 181.922 25.604C184.152 27.4227 185.56 29.9453 186.146 33.172H175.806C175.425 31.8813 174.677 31.236 173.562 31.236C172.77 31.236 172.14 31.6027 171.67 32.336C171.23 33.0693 171.01 34.1547 171.01 35.592C171.01 37.0293 171.23 38.1147 171.67 38.848C172.14 39.5813 172.77 39.948 173.562 39.948C174.677 39.948 175.425 39.3027 175.806 38.012H186.146C185.56 41.2387 184.152 43.7613 181.922 45.58C179.722 47.3987 177.009 48.308 173.782 48.308C171.318 48.308 169.118 47.7947 167.182 46.768C165.276 45.7413 163.78 44.2747 162.694 42.368C161.638 40.432 161.11 38.1733 161.11 35.592ZM205.127 48L199.011 38.1V48H189.243V15.44H199.011V32.468L205.215 23.184H216.567L207.283 35.68L216.787 48H205.127ZM243.001 35.372C243.001 36.0467 242.957 36.692 242.869 37.308H227.161C227.308 39.4493 228.203 40.52 229.845 40.52C230.901 40.52 231.664 40.036 232.133 39.068H242.473C242.121 40.828 241.373 42.412 240.229 43.82C239.115 45.1987 237.692 46.2987 235.961 47.12C234.26 47.912 232.383 48.308 230.329 48.308C227.865 48.308 225.665 47.7947 223.729 46.768C221.823 45.7413 220.327 44.2747 219.241 42.368C218.185 40.432 217.657 38.1733 217.657 35.592C217.657 33.0107 218.185 30.7667 219.241 28.86C220.327 26.924 221.823 25.4427 223.729 24.416C225.665 23.3893 227.865 22.876 230.329 22.876C232.793 22.876 234.979 23.3893 236.885 24.416C238.821 25.4133 240.317 26.8507 241.373 28.728C242.459 30.6053 243.001 32.82 243.001 35.372ZM233.101 33.04C233.101 32.2187 232.837 31.6027 232.309 31.192C231.781 30.752 231.121 30.532 230.329 30.532C228.599 30.532 227.587 31.368 227.293 33.04H233.101ZM255.859 27.76C256.856 26.3227 258.073 25.1787 259.511 24.328C260.948 23.448 262.444 23.008 263.999 23.008V33.436H261.227C259.379 33.436 258.015 33.7587 257.135 34.404C256.284 35.0493 255.859 36.1933 255.859 37.836V48H246.091V23.184H255.859V27.76Z" fill="#8D35AC"/>
</svg>
