<svg width="132" height="157" viewBox="0 0 132 157" fill="none" xmlns="http://www.w3.org/2000/svg">
<path d="M60.0357 1.67451C61.855 0.576508 63.9047 0 65.9891 0C68.0735 0 70.1232 0.576508 71.9425 1.67451L126.341 34.8412C128.046 35.8885 129.465 37.4005 130.458 39.2258C131.451 41.0512 131.983 43.126 132 45.2426V111.772C131.967 113.971 131.384 116.119 130.314 117.989C129.244 119.86 127.725 121.384 125.919 122.401L71.717 155.403C69.8635 156.509 67.7694 157.059 65.6525 156.995C63.5356 156.932 61.473 156.257 59.6793 155.042L43.4157 144.9C42.2252 144.326 41.1559 143.495 40.2735 142.458C40.9645 141.454 42.201 141.328 43.2048 140.888C45.4343 140.029 47.5846 138.946 49.6273 137.654C49.8845 137.49 50.1812 137.413 50.4793 137.433C50.7774 137.453 51.0632 137.568 51.3002 137.764C55.9262 140.629 60.5158 143.581 65.1708 146.423C66.16 147.043 67.1638 146.219 68.0075 145.716C85.7452 134.894 103.485 124.087 121.228 113.295C121.544 113.125 121.806 112.855 121.979 112.522C122.151 112.189 122.227 111.807 122.195 111.427C122.21 89.4833 122.212 67.537 122.203 45.588C122.234 45.1616 122.142 44.735 121.939 44.3678C121.735 44.0005 121.431 43.7109 121.068 43.5392C103.059 32.5909 85.0542 21.6373 67.0547 10.6786C66.7421 10.447 66.3718 10.3231 65.9927 10.3231C65.6136 10.3231 65.2434 10.447 64.9308 10.6786C46.9264 21.6269 28.9268 32.583 10.9321 43.547C10.5669 43.7141 10.2599 44.0014 10.0548 44.3679C9.84979 44.7344 9.75716 45.1614 9.79017 45.588V111.427C9.75946 111.806 9.83713 112.186 10.0127 112.516C10.1883 112.846 10.4533 113.109 10.7721 113.272C15.5726 116.213 20.3804 119.144 25.1955 122.064C26.5293 122.954 28.022 123.53 29.5762 123.754C31.1304 123.979 32.711 123.847 34.2147 123.367C35.5199 122.837 36.6437 121.889 37.4355 120.65C38.2272 119.411 38.649 117.94 38.6443 116.435C38.6661 94.612 38.6297 72.7887 38.6588 50.9811C38.6539 50.7495 38.6943 50.5195 38.7773 50.3059C38.8603 50.0924 38.9841 49.9001 39.1405 49.7416C39.297 49.5831 39.4826 49.4619 39.6854 49.386C39.8881 49.3102 40.1034 49.2812 40.3172 49.3011C42.6302 49.2854 44.9359 49.2697 47.2488 49.309C47.4735 49.3204 47.6933 49.3827 47.8941 49.492C48.0949 49.6012 48.2721 49.7549 48.4142 49.9431C48.5563 50.1312 48.66 50.3496 48.7186 50.5839C48.7772 50.8182 48.7895 51.0632 48.7545 51.3029C48.7472 73.2597 48.7763 95.2165 48.7399 117.165C48.895 120.149 48.3053 123.123 47.0323 125.777C45.7593 128.431 43.8497 130.668 41.5028 132.253C38.3685 133.829 34.9374 134.597 31.4809 134.494C28.0245 134.392 24.6375 133.423 21.5878 131.665C16.3 128.815 11.2594 125.463 6.0734 122.401C4.26718 121.385 2.74915 119.861 1.67999 117.99C0.610841 116.119 0.0303582 113.97 0 111.772V45.2426C0.0155091 43.0833 0.565932 40.9678 1.5942 39.1154C2.62246 37.263 4.09113 35.7412 5.84792 34.7078C23.9154 23.7019 41.9804 12.6908 60.043 1.67451H60.0357Z" fill="#00FFA3"/>
<path d="M75.7975 47.7547C83.7816 46.6415 91.8946 47.9829 99.2037 51.6248C101.852 53.3301 104.042 55.7526 105.557 58.6523C107.071 61.5521 107.857 64.8285 107.837 68.1571C107.735 68.5735 107.497 68.936 107.167 69.1783C106.837 69.4205 106.437 69.5262 106.041 69.4759C103.75 69.4759 101.466 69.5073 99.1819 69.4602C98.741 69.431 98.3262 69.2246 98.0192 68.8817C97.7123 68.5388 97.5354 68.0842 97.5235 67.6076C97.264 65.996 96.6826 64.4647 95.8197 63.12C94.9568 61.7753 93.8331 60.6493 92.5266 59.8203C88.1782 57.9551 83.4821 57.2288 78.8233 57.7008C75.3897 57.5855 71.9936 58.4984 69.0113 60.3384C67.9842 61.1983 67.2326 62.3839 66.8621 63.7285C66.4916 65.0732 66.5208 66.5094 66.9456 67.8353C67.6802 69.7193 69.695 70.3238 71.3461 70.8811C80.8453 73.5658 90.9119 73.2989 100.222 76.8236C102.222 77.4245 104.068 78.5115 105.619 80.0015C107.17 81.4915 108.384 83.3448 109.168 85.4195C110.102 88.3618 110.327 91.5119 109.823 94.5739C109.32 97.636 108.103 100.51 106.288 102.925C103.004 106.607 98.7377 109.091 94.0832 110.03C88.0217 111.359 81.8036 111.645 75.6593 110.877C69.7625 110.512 64.1093 108.214 59.4539 104.291C57.6097 102.462 56.1624 100.217 55.2157 97.7144C54.2689 95.212 53.8459 92.5148 53.9769 89.8156C54.0227 89.3826 54.2247 88.9865 54.5392 88.7132C54.8537 88.4399 55.2554 88.3113 55.6571 88.3555C57.9628 88.3319 60.2612 88.3241 62.5669 88.3555C62.7802 88.3513 62.9921 88.3928 63.1905 88.4775C63.3888 88.5623 63.5696 88.6886 63.7224 88.8491C63.8753 89.0097 63.9971 89.2014 64.0809 89.4131C64.1648 89.6248 64.2089 89.8523 64.2108 90.0825C64.3241 91.6214 64.7286 93.119 65.3991 94.4826C66.0696 95.8463 66.992 97.0472 68.1094 98.0111C73.0392 100.629 78.5481 101.711 84.0166 101.135C88.595 101.513 93.1656 100.306 97.0653 97.6892C97.9639 96.7435 98.6179 95.5607 98.9624 94.258C99.3069 92.9554 99.3299 91.5782 99.0291 90.263C98.4618 88.065 96.3379 87.0445 94.5123 86.3772C85.1294 83.1744 74.961 84.3362 65.6727 80.7252C63.7248 80.1083 61.9241 79.0428 60.3946 77.6022C58.8652 76.1615 57.6434 74.38 56.8136 72.3805C55.7469 69.3985 55.4773 66.1532 56.0354 63.014C56.5934 59.8748 57.9568 56.9677 59.9703 54.6235C64.359 50.4408 69.9476 48.0155 75.7975 47.7547Z" fill="#00FFA3"/>
</svg>
